<svg xmlns="http://www.w3.org/2000/svg" version="1.1" xmlns:xlink="http://www.w3.org/1999/xlink" xmlns:svgjs="http://svgjs.com/svgjs" width="1440" height="560" preserveAspectRatio="none" viewBox="0 0 1440 560"><g mask="url(&quot;#SvgjsMask2062&quot;)" fill="none"><rect width="1440" height="560" x="0" y="0" fill="url(#SvgjsLinearGradient2063)"></rect><path d="M 0,226 C 26.2,195.4 78.6,64 131,73 C 183.4,82 209.6,259.8 262,271 C 314.4,282.2 340.6,146.4 393,129 C 445.4,111.6 471.6,207.8 524,184 C 576.4,160.2 602.6,-2.4 655,10 C 707.4,22.4 733.6,236.8 786,246 C 838.4,255.2 864.6,65.2 917,56 C 969.4,46.8 995.6,186.8 1048,200 C 1100.4,213.2 1126.6,120.2 1179,122 C 1231.4,123.8 1257.8,228 1310,209 C 1362.2,190 1414,63.4 1440,27L1440 560L0 560z" fill="rgba(177, 5, 176, 0)"></path><path d="M 0,485 C 57.6,466 172.8,392.2 288,390 C 403.2,387.8 460.8,470 576,474 C 691.2,478 748.8,407.4 864,410 C 979.2,412.6 1036.8,512.8 1152,487 C 1267.2,461.2 1382.4,322.2 1440,281L1440 560L0 560z" fill="rgba(55, 73, 158, 1)"></path></g><defs><mask id="SvgjsMask2062"><rect width="1440" height="560" fill="#ffffff"></rect></mask><linearGradient x1="50%" y1="100%" x2="50%" y2="0%" gradientUnits="userSpaceOnUse" id="SvgjsLinearGradient2063"><stop stop-color="rgba(154, 167, 184, 1)" offset="0"></stop><stop stop-color="rgba(17, 68, 135, 1)" offset="1"></stop></linearGradient></defs></svg>